<?xml version="1.0" standalone="yes"?>
<svg xmlns="http://www.w3.org/2000/svg" width="62" height="50">
<path style="fill:#e9f5e8; stroke:none;" d="M0 0L0 50L62 50L62 0L30 0L30 1L49 1L49 21L43 21L43 22L49 23L47 26L47 27C51.0012 32.2814 49 42.5569 49 49L7 49L7 0L0 0z"/>
<path style="fill:#174632; stroke:none;" d="M7 0L7 8L24 8C22.2759 -1.48531 14.8857 0 7 0z"/>
<path style="fill:#bcdd7e; stroke:none;" d="M21 0C23.2905 3.73399 25.7923 3.95016 30 4C27.6586 9.04146 28.0508 15.8406 34 18L34 10C39.8993 15.0108 40.2883 20.897 49 21L49 1L29 0L30 3L21 0z"/>
<path style="fill:#174632; stroke:none;" d="M28 0L30 3L28 0z"/>
<path style="fill:#e9f5e8; stroke:none;" d="M31 2L32 3L31 2z"/>
<path style="fill:#15ce4c; stroke:none;" d="M23 4L24 5L23 4z"/>
<path style="fill:#2edd88; stroke:none;" d="M24 4L24 5L28 5L28 6L24 7L28 11L30 4L24 4z"/>
<path style="fill:#e9f5e8; stroke:none;" d="M32 4L33 5L32 4z"/>
<path style="fill:#bcdd7e; stroke:none;" d="M24 7L28 6L24 7z"/>
<path style="fill:#e9f5e8; stroke:none;" d="M32 6L32 7L37 7L32 6z"/>
<path style="fill:#15ce4c; stroke:none;" d="M30 7L30 9L32 9L32 7L30 7z"/>
<path style="fill:#bcdd7e; stroke:none;" d="M7 8L7 16C12.4107 15.5784 12.9405 13.0168 13 8L7 8z"/>
<path style="fill:#2edd88; stroke:none;" d="M13 8C12.8461 12.7253 11.923 15.2149 7 16L7 32L8 32C9.26099 29.1898 13.4566 25.8867 9 25L9 24L15 23L15 30L12 31L12 32L21 25L22 15L18 13C21.1942 12.9865 23.2708 13.4029 24 10L17 12L13 8z"/>
<path style="fill:#15ce4c; stroke:none;" d="M15.6667 8.33333L16.3333 8.66667L15.6667 8.33333z"/>
<path style="fill:#bcdd7e; stroke:none;" d="M17 12L20 10L24 8L17 12z"/>
<path style="fill:#15ce4c; stroke:none;" d="M24 8L24 12L25 12L24 8z"/>
<path style="fill:#e9f5e8; stroke:none;" d="M28 8L29 9L28 8z"/>
<path style="fill:#2edd88; stroke:none;" d="M36.3333 8.66667L36.6667 9.33333L36.3333 8.66667z"/>
<path style="fill:#e9f5e8; stroke:none;" d="M17 9L18 10L17 9z"/>
<path style="fill:#2edd88; stroke:none;" d="M19 9L20 10L19 9z"/>
<path style="fill:#e9f5e8; stroke:none;" d="M27 9L28 10L27 9z"/>
<path style="fill:#174632; stroke:none;" d="M30 9L31 10L30 9z"/>
<path style="fill:#e9f5e8; stroke:none;" d="M20 10L21 11L20 10z"/>
<path style="fill:#174632; stroke:none;" d="M25 10L21 14L21 15L24 16L25 10z"/>
<path style="fill:#15ce4c; stroke:none;" d="M26 10L28 17L26 13L25 13L20 17L21 25L18 24L12 32L12 31L15 30L15 23L9 24L9 25L12 25L7 34L10 33L15 43L19 37L27 38L24 32L24 31L28 30C30.0835 23.4251 31.6553 15.0727 26 10z"/>
<path style="fill:#2edd88; stroke:none;" d="M34 10L35 11L34 10z"/>
<path style="fill:#15ce4c; stroke:none;" d="M34 11C34.0102 14.5658 38.2358 28.3793 32 26L31 26L29 38C32.5827 38.0127 45.1082 40.7086 39 46L39 47C43.5537 45.6309 44.7891 42.3777 46 38C39.0857 37.6994 40.3093 32.2673 41 27C44.9264 30.6279 46.7235 34.6809 47 40L48 40C49.0416 30.1494 43.1468 15.7816 34 11z"/>
<path style="fill:#2edd88; stroke:none;" d="M36 11L37 12L36 11M26 12L28 17L26 12M37 12L38 13L37 12z"/>
<path style="fill:#15ce4c; stroke:none;" d="M18 13L19 16L21 16L22 13L18 13z"/>
<path style="fill:#2edd88; stroke:none;" d="M29 13L30 14L29 13z"/>
<path style="fill:#15ce4c; stroke:none;" d="M15 14L10 20C11.7484 19.6779 17.5789 18.5561 14 17L15 14z"/>
<path style="fill:#174632; stroke:none;" d="M28 14L29 15L28 14z"/>
<path style="fill:#2edd88; stroke:none;" d="M38 14L39 15L38 14z"/>
<path style="fill:#174632; stroke:none;" d="M29.3333 15.6667L29.6667 16.3333L29.3333 15.6667z"/>
<path style="fill:#2edd88; stroke:none;" d="M30 15L29 27L32 26C34.2457 28.2647 36.7367 26.1231 36.1991 22.9992C35.6229 19.6513 32.2321 17.2921 30 15M39.3333 16.6667L39.6667 17.3333L39.3333 16.6667z"/>
<path style="fill:#15ce4c; stroke:none;" d="M18 18L19 19L18 18M32 19L33 20L32 19z"/>
<path style="fill:#2edd88; stroke:none;" d="M41 20L42 21L41 20z"/>
<path style="fill:#15ce4c; stroke:none;" d="M10 23L13 22L10 23z"/>
<path style="fill:#174632; stroke:none;" d="M20 21L21 22L20 21z"/>
<path style="fill:#2edd88; stroke:none;" d="M42 21L43 22L42 21z"/>
<path style="fill:#bcdd7e; stroke:none;" d="M8 22L9 23L8 22z"/>
<path style="fill:#174632; stroke:none;" d="M25 23L25 24L29 25L29 22L25 23z"/>
<path style="fill:#bcdd7e; stroke:none;" d="M43 22L44 23L43 22M44 23L49 26C48.3456 22.9461 46.9934 23.0642 44 23z"/>
<path style="fill:#15ce4c; stroke:none;" d="M16 24L15 26L16 24z"/>
<path style="fill:#174632; stroke:none;" d="M23 24L25 29L23 24z"/>
<path style="fill:#2edd88; stroke:none;" d="M45 25L46 26L45 25z"/>
<path style="fill:#174632; stroke:none;" d="M18 26L18 30L19 30L20 26L18 26z"/>
<path style="fill:#2edd88; stroke:none;" d="M46 26L47 27L46 26z"/>
<path style="fill:#bcdd7e; stroke:none;" d="M29 27L28 31L32 31L29 27z"/>
<path style="fill:#174632; stroke:none;" d="M41.6667 27.3333L42.3333 27.6667L41.6667 27.3333z"/>
<path style="fill:#bcdd7e; stroke:none;" d="M47 27L48 33L49 33L47 27z"/>
<path style="fill:#2edd88; stroke:none;" d="M28.3333 28.6667L28.6667 29.3333L28.3333 28.6667M31 28L31 30L33 30L31 28z"/>
<path style="fill:#bcdd7e; stroke:none;" d="M41 28L42 36L43 36C43.3145 38.5947 43.4599 38.523 46 38L46 37L41 32L45 31L41 28z"/>
<path style="fill:#2edd88; stroke:none;" d="M26 29L27 38C23.4772 38 19.0513 40.7947 20 37L19 37L18 40C28.0625 47.8633 29.0854 48.5131 42 46C39.8573 38.8116 35.9269 38.0054 29 38L32 31L26 29z"/>
<path style="fill:#174632; stroke:none;" d="M40 30L41 31L40 30M16 31L17 32L16 31M24 31L25 32L24 31M44 31L41 32L46 37L44 44L45 44C47.3122 39.1743 46.4263 35.6191 44 31M23 32L24 33L23 32z"/>
<path style="fill:#bcdd7e; stroke:none;" d="M45 32L45 36L46 36L45 32z"/>
<path style="fill:#2edd88; stroke:none;" d="M9 33L10 39L7 42L12 42L9 33M14 33L13 35L15 35L14 33z"/>
<path style="fill:#174632; stroke:none;" d="M16 33L19 35L19 34L16 33z"/>
<path style="fill:#2edd88; stroke:none;" d="M48 33L49 34L48 33z"/>
<path style="fill:#bcdd7e; stroke:none;" d="M7 34L7 40L10 39L7 34z"/>
<path style="fill:#2edd88; stroke:none;" d="M39.3333 34.6667L39.6667 35.3333L39.3333 34.6667M46.3333 34.6667L46.6667 35.3333L46.3333 34.6667M13 37L16 39L15 36L13 37M20 36L21 37L20 36z"/>
<path style="fill:#174632; stroke:none;" d="M42.3333 36.6667L42.6667 37.3333L42.3333 36.6667z"/>
<path style="fill:#2edd88; stroke:none;" d="M48 36L48 39L49 39L48 36z"/>
<path style="fill:#bcdd7e; stroke:none;" d="M19 38L20 39L19 38z"/>
<path style="fill:#2edd88; stroke:none;" d="M42 38L43 39L42 38M44 38L45 39L44 38z"/>
<path style="fill:#bcdd7e; stroke:none;" d="M48 39L39 48L39 49L49 49L48 39z"/>
<path style="fill:#2edd88; stroke:none;" d="M16 40L13 42L14 49L15 49L16 40z"/>
<path style="fill:#bcdd7e; stroke:none;" d="M17 40L15 49L28 49L17 40z"/>
<path style="fill:#2edd88; stroke:none;" d="M47 40L48 41L47 40z"/>
<path style="fill:#15ce4c; stroke:none;" d="M46 41L47 42L46 41z"/>
<path style="fill:#bcdd7e; stroke:none;" d="M7 42L7 49L14 49C13.8256 43.6899 12.3101 42.1744 7 42z"/>
<path style="fill:#2edd88; stroke:none;" d="M46 42L47 43L46 42z"/>
<path style="fill:#15ce4c; stroke:none;" d="M45 43L46 44L45 43z"/>
<path style="fill:#2edd88; stroke:none;" d="M43 45L44 46L43 45z"/>
<path style="fill:#e9f5e8; stroke:none;" d="M22 46L23 47L22 46z"/>
<path style="fill:#15ce4c; stroke:none;" d="M32 48L32 49L38 49L32 48z"/>
<path style="fill:#174632; stroke:none;" d="M37 47L37 48L40 48L37 47z"/>
<path style="fill:#2edd88; stroke:none;" d="M40 47L41 48L40 47M38 48L39 49L38 48z"/>
</svg>
